<svg xmlns="http://www.w3.org/2000/svg" viewBox="0 0 640 160" role="img" aria-label="EkGuru">
  <title>EkGuru</title>
  <defs>
    <linearGradient id="wg" x1="0" y1="0" x2="1" y2="1">
      <stop offset="0%" stop-color="#5b3df5"/><stop offset="55%" stop-color="#8b5cf6"/><stop offset="100%" stop-color="#ec4899"/>
    </linearGradient>
    <linearGradient id="wf" x1="0.5" y1="1" x2="0.5" y2="0">
      <stop offset="0%" stop-color="#f59e0b"/><stop offset="45%" stop-color="#fbbf24"/><stop offset="100%" stop-color="#fff7d6"/>
    </linearGradient>
  </defs>
  <rect x="8" y="20" width="120" height="120" rx="30" fill="url(#wg)"/>
  <path d="M68 40c0 0 5 18 18 32 9 11 15 20 15 32a33 33 0 11-66 0c0-12 6-21 15-32 13-14 18-32 18-32z" fill="url(#wf)"/>
  <path d="M63 116c-22-15-46-17-72-8v84c26-9 50-7 72 8z" transform="translate(0,-6) scale(0.62) translate(60,44)" fill="#fff" fill-opacity=".95"/>
  <path d="M73 116c22-15 46-17 72-8v84c-26-9-50-7-72 8z" transform="translate(0,-6) scale(0.62) translate(60,44)" fill="#fff" fill-opacity=".8"/>
  <text x="152" y="84" font-family="Inter,Segoe UI,Helvetica,Arial,sans-serif" font-size="54" font-weight="800" fill="#0f1222" letter-spacing="-1.5">EkGuru</text>
  <text x="153" y="115" font-family="Inter,Segoe UI,Helvetica,Arial,sans-serif" font-size="15.5" font-weight="600" fill="#6b7280" letter-spacing="1.6">ONE STUDENT. ONE GURU. ONE GOAL.</text>
</svg>
