<svg xmlns="http://www.w3.org/2000/svg" viewBox="0 0 320 200" width="320" height="200" role="img" aria-label="Malay at level A1: greet, count to twenty, read a shop sign">
<title>Malay at A1 — First words</title>
<defs><linearGradient id="bg" x1="0" y1="0" x2="0" y2="1"><stop offset="0" stop-color="#15803d" stop-opacity=".16"/><stop offset="1" stop-color="#0f5c2b" stop-opacity=".3"/></linearGradient></defs>
<rect width="320" height="200" rx="14" fill="url(#bg)"/>
<circle cx="160.0" cy="76.0" r="40.8" fill="#15803d" opacity=".18"/>
<rect x="0" y="168" width="320" height="32" fill="#15803d" opacity=".1"/>
<g><rect x="149.0" y="94.0" width="22.0" height="44.0" rx="10" fill="#f3c9a8"/><rect x="148.0" y="64.0" width="24.0" height="24.0" rx="8" fill="#f3c9a8"/><ellipse cx="160.0" cy="76.0" rx="12.0" ry="15.0" fill="#f3c9a8"/><path d="M148.0 72.2 a12.0 14.4 0 0 1 24.0 0 q12.0 -12.0 -12.0 -4.8 q-12.0 0 -12.0 12.0 z" fill="#3a3a44"/></g>
<rect x="222" y="136" width="30" height="30" rx="6" fill="#fff" stroke="#15803d" stroke-width="2"/><text x="237" y="157" font-size="17" text-anchor="middle" fill="#15803d" font-family="system-ui,sans-serif">A</text>
<text x="16" y="26" font-size="13" font-weight="700" fill="#15803d" font-family="system-ui,-apple-system,Segoe UI,sans-serif">A1</text>
<text x="16" y="44" font-size="11" fill="#0f5c2b" direction="ltr" font-family="system-ui,-apple-system,Segoe UI,sans-serif">Malay</text>
<text x="304" y="44" text-anchor="end" font-size="10" fill="#0f5c2b" font-family="system-ui,-apple-system,Segoe UI,sans-serif">First words</text>
<text x="16" y="190" font-size="10" fill="#0f5c2b" font-family="system-ui,-apple-system,Segoe UI,sans-serif">Malay — First words</text>
</svg>
