<svg xmlns="http://www.w3.org/2000/svg" viewBox="0 0 320 200" width="320" height="200" role="img" aria-label="Tamil at level C3: work inside a domain: legal, medical, technical or literary language at depth">
<title>Tamil at C3 — Specialization</title>
<defs><linearGradient id="bg" x1="0" y1="0" x2="0" y2="1"><stop offset="0" stop-color="#b3261e" stop-opacity=".16"/><stop offset="1" stop-color="#7f1a13" stop-opacity=".3"/></linearGradient></defs>
<rect width="320" height="200" rx="14" fill="url(#bg)"/>
<circle cx="160.0" cy="50.8" r="38.2" fill="#b3261e" opacity=".18"/>
<rect x="0" y="168" width="320" height="32" fill="#b3261e" opacity=".1"/>
<g><rect x="145.0" y="67.2" width="30.0" height="70.0" rx="10" fill="#f3c9a8"/><rect x="148.8" y="39.5" width="22.5" height="22.5" rx="8" fill="#f3c9a8"/><ellipse cx="160.0" cy="50.8" rx="11.2" ry="14.2" fill="#f3c9a8"/><path d="M148.8 47.1 a11.2 13.5 0 0 1 22.5 0 q11.2 -11.2 -11.2 -4.5 q-11.2 0 -11.2 11.2 z" fill="#3a3a44"/></g>
<rect x="214" y="126" width="48" height="34" rx="4" fill="#fff" stroke="#b3261e" stroke-width="2"/><path d="M238 126 v34" stroke="#b3261e" stroke-width="1.6" opacity=".5"/><path d="M219 136 h38 M219 144 h30 M219 152 h36" stroke="#b3261e" stroke-width="2" opacity=".8"/><circle cx="257" cy="136" r="2.5" fill="#b3261e"/>
<text x="16" y="26" font-size="13" font-weight="700" fill="#b3261e" font-family="system-ui,-apple-system,Segoe UI,sans-serif">C3</text>
<text x="16" y="44" font-size="11" fill="#7f1a13" direction="ltr" font-family="system-ui,-apple-system,Segoe UI,sans-serif">Tamil</text>
<text x="304" y="44" text-anchor="end" font-size="10" fill="#7f1a13" font-family="system-ui,-apple-system,Segoe UI,sans-serif">Specialization</text>
<text x="16" y="190" font-size="10" fill="#7f1a13" font-family="system-ui,-apple-system,Segoe UI,sans-serif">Tamil — Specialization</text>
</svg>
