<svg xmlns="http://www.w3.org/2000/svg" viewBox="0 0 320 200" width="320" height="200" role="img" aria-label="Telugu at level C2: an elder. poetry, law, humour, and the mistake that sounds foreign">
<title>Telugu at C2 — an elder</title>
<defs><linearGradient id="bg" x1="0" y1="0" x2="0" y2="1"><stop offset="0" stop-color="#1f6feb" stop-opacity=".16"/><stop offset="1" stop-color="#14509e" stop-opacity=".3"/></linearGradient></defs>
<rect width="320" height="200" rx="14" fill="url(#bg)"/>
<circle cx="160.0" cy="45.7" r="32.3" fill="#1f6feb" opacity=".18"/>
<rect x="0" y="168" width="320" height="32" fill="#1f6feb" opacity=".1"/>
<g><rect x="146.0" y="58.7" width="28.0" height="76.8" rx="10" fill="#f3c9a8"/><rect x="150.5" y="36.2" width="19.0" height="19.0" rx="8" fill="#f3c9a8"/><ellipse cx="160.0" cy="45.7" rx="9.5" ry="12.5" fill="#f3c9a8"/><path d="M150.5 42.7 a9.5 11.4 0 0 1 19.0 0 q9.5 -9.5 -9.5 -3.8 q-9.5 0 -9.5 9.5 z" fill="rgb(210,210,216)"/><g stroke="#14509e" stroke-width="2" fill="none"><circle cx="151.0" cy="47.7" r="7"/><circle cx="169.0" cy="47.7" r="7"/><path d="M158.0 47.7 h6"/></g><path d="M152.0 52.2 q7 22 15 0" fill="none" stroke="rgb(210,210,216)" stroke-width="9" stroke-linecap="round"/></g>
<rect x="216" y="128" width="44" height="32" rx="4" fill="#fff" stroke="#1f6feb" stroke-width="2"/><path d="M238 128 v32" stroke="#1f6feb" stroke-width="1.6" opacity=".5"/><path d="M118 168 q-14 -6 -10 -34" stroke="#14509e" stroke-width="3" fill="none" stroke-linecap="round"/>
<text x="16" y="26" font-size="13" font-weight="700" fill="#1f6feb" font-family="system-ui,-apple-system,Segoe UI,sans-serif">C2</text>
<text x="16" y="44" font-size="11" fill="#14509e" direction="ltr" font-family="system-ui,-apple-system,Segoe UI,sans-serif">Telugu</text>
<text x="304" y="26" text-anchor="end" font-size="11" fill="#14509e" font-family="system-ui,-apple-system,Segoe UI,sans-serif">age 78</text>
<text x="304" y="44" text-anchor="end" font-size="10" fill="#14509e" font-family="system-ui,-apple-system,Segoe UI,sans-serif">Mastery</text>
<text x="16" y="190" font-size="10" fill="#14509e" font-family="system-ui,-apple-system,Segoe UI,sans-serif">Telugu — Mastery</text>
</svg>
