<svg xmlns="http://www.w3.org/2000/svg" viewBox="0 0 320 200" width="320" height="200" role="img" aria-label="Ukrainian at level B1: a young adult. explain a problem, write a message, follow a podcast">
<title>Ukrainian at B1 — a young adult</title>
<defs><linearGradient id="bg" x1="0" y1="0" x2="0" y2="1"><stop offset="0" stop-color="#1d4ed8" stop-opacity=".16"/><stop offset="1" stop-color="#153aa0" stop-opacity=".3"/></linearGradient></defs>
<rect width="320" height="200" rx="14" fill="url(#bg)"/>
<circle cx="160.0" cy="54.4" r="39.4" fill="#1d4ed8" opacity=".18"/>
<rect x="0" y="168" width="320" height="32" fill="#1d4ed8" opacity=".1"/>
<g><rect x="146.0" y="71.6" width="28.0" height="66.0" rx="10" fill="#f3c9a8"/><rect x="148.4" y="42.8" width="23.2" height="23.2" rx="8" fill="#f3c9a8"/><ellipse cx="160.0" cy="54.4" rx="11.6" ry="14.6" fill="#f3c9a8"/><path d="M148.4 50.7 a11.6 13.9 0 0 1 23.2 0 q11.6 -11.6 -11.6 -4.6 q-11.6 0 -11.6 11.6 z" fill="rgb(70,70,76)"/></g>
<rect x="226" y="128" width="20" height="34" rx="4" fill="#fff" stroke="#1d4ed8" stroke-width="2"/><circle cx="236" cy="136" r="2.5" fill="#1d4ed8"/>
<text x="16" y="26" font-size="13" font-weight="700" fill="#1d4ed8" font-family="system-ui,-apple-system,Segoe UI,sans-serif">B1</text>
<text x="16" y="44" font-size="11" fill="#153aa0" direction="ltr" font-family="system-ui,-apple-system,Segoe UI,sans-serif">Ukrainian</text>
<text x="304" y="26" text-anchor="end" font-size="11" fill="#153aa0" font-family="system-ui,-apple-system,Segoe UI,sans-serif">age 20</text>
<text x="304" y="44" text-anchor="end" font-size="10" fill="#153aa0" font-family="system-ui,-apple-system,Segoe UI,sans-serif">Independent</text>
<text x="16" y="190" font-size="10" fill="#153aa0" font-family="system-ui,-apple-system,Segoe UI,sans-serif">Ukrainian — Independent</text>
</svg>
